<?xml version="1.0" standalone="no"?>
<!DOCTYPE svg PUBLIC "-//W3C//DTD SVG 20010904//EN"
 "http://www.w3.org/TR/2001/REC-SVG-20010904/DTD/svg10.dtd">
<svg version="1.0" xmlns="http://www.w3.org/2000/svg"
 width="962.000000pt" height="259.000000pt" viewBox="0 0 962.000000 259.000000"
 preserveAspectRatio="xMidYMid meet">

<g transform="translate(0.000000,259.000000) scale(0.100000,-0.100000)"
fill="#000000" stroke="none">
<path d="M1102 2035 c-103 -27 -191 -67 -269 -123 l-52 -38 94 -94 94 -93 68
36 c38 19 96 43 131 53 l62 17 0 134 c0 155 12 144 -128 108z"/>
<path d="M1886 2045 c-28 -10 -78 -52 -165 -139 -70 -69 -131 -126 -137 -126
-6 0 -23 13 -38 29 -57 60 -120 61 -150 4 -20 -39 -10 -75 30 -114 19 -18 34
-38 34 -43 0 -6 -71 -83 -159 -171 -184 -185 -197 -208 -189 -326 3 -39 10
-75 16 -81 6 -6 48 -11 94 -12 115 -1 149 19 333 204 l149 149 43 -39 c49 -46
86 -51 127 -19 42 33 37 85 -14 134 l-40 39 134 135 c121 124 134 141 145 188
11 46 11 56 -7 95 -25 55 -60 87 -109 99 -49 11 -50 11 -97 -6z m-391 -716
c-83 -83 -168 -160 -189 -171 l-39 -20 -39 39 c-59 59 -53 70 136 261 l161
162 60 -60 60 -60 -150 -151z"/>
<path d="M4045 1807 c-55 -31 -85 -91 -85 -174 l0 -63 -40 0 -40 0 0 -55 0
-55 40 0 40 0 0 -265 0 -265 70 0 70 0 0 265 0 265 54 0 c52 0 54 1 60 31 15
75 12 79 -55 79 l-62 0 6 62 c8 88 47 116 121 88 24 -9 28 -6 46 30 11 22 20
42 20 45 0 16 -76 35 -137 35 -52 0 -78 -6 -108 -23z"/>
<path d="M5550 1680 c0 -82 -3 -150 -7 -150 -4 0 -17 10 -29 21 -28 26 -99 36
-147 20 -20 -7 -51 -29 -70 -50 -128 -142 -107 -508 33 -582 68 -37 161 -17
210 44 17 20 17 20 24 -17 l7 -37 62 3 62 3 3 441 2 441 -37 7 c-21 3 -55 6
-75 6 l-38 0 0 -150z m-27 -238 l27 -26 0 -163 0 -163 -27 -29 c-64 -69 -130
-37 -153 75 -17 79 -8 232 17 281 32 66 82 75 136 25z"/>
<path d="M2630 1771 c-130 -43 -203 -140 -230 -306 -39 -239 34 -456 174 -521
100 -47 246 -24 314 49 l21 22 -35 38 -35 37 -45 -26 c-106 -62 -198 -13 -230
122 -17 71 -18 243 -3 316 16 72 44 125 77 142 53 27 107 24 157 -9 20 -15 38
-25 39 -23 1 2 17 20 35 42 30 36 31 39 16 56 -42 46 -192 82 -255 61z"/>
<path d="M624 1693 c-71 -112 -124 -256 -124 -340 l0 -34 132 3 c131 3 131 3
138 28 31 109 44 142 71 184 l32 48 -94 94 c-51 52 -96 94 -99 94 -3 0 -28
-35 -56 -77z"/>
<path d="M5840 1344 l0 -417 148 6 c168 6 235 22 289 70 117 103 89 307 -49
349 -21 6 -38 14 -38 17 0 3 21 18 46 33 112 69 109 239 -7 310 -58 36 -125
48 -270 48 l-119 0 0 -416z m280 291 c60 -31 65 -142 9 -189 -25 -21 -41 -26
-85 -26 l-54 0 0 115 0 115 50 0 c28 0 64 -7 80 -15z m36 -359 c34 -34 40 -54
34 -126 -5 -70 -42 -98 -137 -102 l-58 -3 -3 133 -3 132 67 0 c62 0 68 -2 100
-34z"/>
<path d="M6903 1748 c3 -7 53 -125 111 -262 l106 -248 0 -155 0 -154 73 3 72
3 5 170 5 170 103 237 c56 131 102 240 102 243 0 3 -33 5 -74 5 l-73 0 -38
-107 c-82 -233 -98 -274 -105 -266 -4 4 -36 90 -71 191 l-64 182 -78 0 c-59 0
-78 -3 -74 -12z"/>
<path d="M4348 1713 l-38 -4 0 -70 0 -69 -35 0 -35 0 0 -55 0 -55 35 0 35 0 0
-207 c0 -235 9 -275 72 -313 46 -28 150 -28 196 0 19 11 32 24 30 28 -34 70
-43 82 -57 76 -34 -14 -57 -15 -76 0 -19 13 -20 28 -23 215 l-3 201 54 0 c53
0 55 1 61 31 15 75 12 79 -54 79 l-60 0 0 75 0 75 -32 -2 c-18 -1 -50 -3 -70
-5z"/>
<path d="M3205 1562 c-17 -10 -39 -35 -50 -55 -16 -31 -21 -34 -27 -20 -3 10
-7 33 -7 51 l-1 32 -65 0 -65 0 0 -320 0 -321 73 3 72 3 5 200 c4 169 8 206
24 238 24 48 51 67 97 67 l37 0 9 63 c5 34 8 65 6 70 -8 14 -78 7 -108 -11z"/>
<path d="M3495 1574 c-11 -3 -39 -12 -62 -20 l-41 -15 15 -45 c11 -33 19 -43
32 -40 56 17 121 26 149 21 40 -7 59 -35 67 -101 l7 -51 -76 -6 c-164 -14
-230 -77 -229 -219 1 -72 36 -138 87 -162 71 -34 168 -13 216 46 17 21 17 21
51 -16 22 -24 44 -38 63 -39 26 -2 30 3 43 41 14 39 13 45 -2 62 -14 15 -17
49 -21 216 -5 228 -15 264 -79 304 -31 19 -55 24 -119 26 -45 2 -90 1 -101 -2z
m163 -393 c4 -70 -2 -92 -34 -130 -54 -65 -124 -28 -124 65 0 83 45 124 130
120 23 -1 25 -5 28 -55z"/>
<path d="M4815 1569 c-41 -15 -101 -75 -125 -124 -27 -57 -42 -191 -30 -276
18 -124 56 -189 134 -225 86 -40 192 -32 279 23 40 25 40 29 -2 83 l-19 25
-43 -24 c-47 -27 -110 -32 -146 -12 -32 16 -55 66 -57 120 l-1 46 164 3 164 3
-6 94 c-7 117 -39 191 -106 239 -36 26 -52 31 -109 33 -37 1 -80 -2 -97 -8z
m137 -106 c19 -22 38 -86 38 -130 l0 -33 -96 0 -97 0 7 56 c10 90 37 124 95
124 24 0 44 -7 53 -17z"/>
<path d="M7695 1569 c-48 -14 -102 -65 -132 -127 -26 -54 -28 -64 -28 -192 0
-116 3 -141 21 -180 48 -103 115 -149 219 -150 111 0 193 61 232 173 25 73 25
251 -1 326 -23 67 -85 132 -142 149 -47 14 -125 14 -169 1z m123 -105 c47 -33
57 -69 57 -214 0 -118 -3 -139 -21 -170 -29 -50 -63 -65 -107 -47 -52 22 -62
58 -62 222 0 116 3 146 18 173 27 49 75 64 115 36z"/>
<path d="M6390 1556 c0 -16 150 -607 157 -618 2 -5 15 -8 29 -8 29 0 29 -1 4
-49 -24 -47 -70 -87 -110 -96 -38 -8 -45 -23 -33 -72 8 -35 12 -38 38 -35 88
11 186 87 225 175 10 23 51 164 90 312 39 149 78 292 86 319 24 84 23 86 -50
86 -36 0 -67 -4 -70 -9 -6 -8 -64 -278 -92 -426 -9 -44 -19 -83 -23 -88 -4 -4
-27 91 -50 210 -23 120 -47 239 -53 266 l-10 47 -69 0 c-52 0 -69 -3 -69 -14z"/>
<path d="M8140 1308 c0 -238 2 -267 20 -305 25 -56 70 -83 138 -83 49 0 56 3
102 46 l50 47 0 -42 0 -42 63 3 62 3 0 315 0 315 -70 0 -70 0 -5 -241 c-5
-259 -6 -261 -61 -290 -33 -16 -39 -17 -59 -4 -12 8 -16 53 -20 272 l-5 263
-72 3 -73 3 0 -263z"/>
<path d="M503 1127 c8 -67 40 -165 79 -242 31 -62 87 -145 97 -145 4 0 48 42
99 93 l93 93 -35 58 c-19 32 -43 89 -53 127 l-17 69 -135 0 -134 0 6 -53z"/>
<path d="M1836 1136 c-6 -40 -58 -157 -88 -198 -11 -16 -2 -29 77 -108 49 -49
93 -90 96 -90 14 0 82 105 116 176 27 58 72 216 73 257 0 4 -60 7 -134 7
l-134 0 -6 -44z"/>
<path d="M872 727 l-93 -93 43 -30 c111 -78 235 -129 366 -149 l42 -7 0 134 0
134 -69 17 c-38 10 -95 34 -126 53 -32 19 -60 34 -64 34 -3 0 -48 -42 -99 -93z"/>
<path d="M1580 789 c-36 -24 -109 -51 -197 -75 -10 -2 -13 -38 -13 -135 l0
-131 48 7 c120 17 260 73 355 143 l49 35 -93 93 c-52 52 -96 94 -99 93 -3 0
-25 -14 -50 -30z"/>
</g>
</svg>
